  0
SECTION
  2
HEADER
  9
$ACADVER
  1
AC1009
  9
$DWGCODEPAGE
  3
undefined
  9
$INSBASE
 10
0.0
 20
0.0
 30
0.0
  9
$EXTMIN
 10
1.000000000000000E+20
 20
1.000000000000000E+20
 30
1.000000000000000E+20
  9
$EXTMAX
 10
-1.000000000000000E+20
 20
-1.000000000000000E+20
 30
-1.000000000000000E+20
  9
$LIMMIN
 10
0.0
 20
0.0
  9
$LIMMAX
 10
12.0
 20
9.0
  9
$ORTHOMODE
 70
     0
  9
$REGENMODE
 70
     1
  9
$FILLMODE
 70
     1
  9
$QTEXTMODE
 70
     0
  9
$MIRRTEXT
 70
     1
  9
$DRAGMODE
 70
     2
  9
$LTSCALE
 40
1.0
  9
$OSMODE
 70
    37
  9
$ATTMODE
 70
     1
  9
$TEXTSIZE
 40
0.2
  9
$TRACEWID
 40
0.05
  9
$TEXTSTYLE
  7
STANDARD
  9
$CLAYER
  8
0
  9
$CELTYPE
  6
BYLAYER
  9
$CECOLOR
 62
   256
  9
$DIMSCALE
 40
1.0
  9
$DIMASZ
 40
0.18
  9
$DIMEXO
 40
0.0625
  9
$DIMDLI
 40
0.38
  9
$DIMRND
 40
0.0
  9
$DIMDLE
 40
0.0
  9
$DIMEXE
 40
0.18
  9
$DIMTP
 40
0.0
  9
$DIMTM
 40
0.0
  9
$DIMTXT
 40
0.18
  9
$DIMCEN
 40
0.09
  9
$DIMTSZ
 40
0.0
  9
$DIMTOL
 70
     0
  9
$DIMLIM
 70
     0
  9
$DIMTIH
 70
     1
  9
$DIMTOH
 70
     1
  9
$DIMSE1
 70
     0
  9
$DIMSE2
 70
     0
  9
$DIMTAD
 70
     0
  9
$DIMZIN
 70
     0
  9
$DIMBLK
  1

  9
$DIMASO
 70
     1
  9
$DIMSHO
 70
     1
  9
$DIMPOST
  1

  9
$DIMAPOST
  1

  9
$DIMALT
 70
     0
  9
$DIMALTD
 70
     2
  9
$DIMALTF
 40
25.4
  9
$DIMLFAC
 40
1.0
  9
$DIMTOFL
 70
     0
  9
$DIMTVP
 40
0.0
  9
$DIMTIX
 70
     0
  9
$DIMSOXD
 70
     0
  9
$DIMSAH
 70
     0
  9
$DIMBLK1
  1

  9
$DIMBLK2
  1

  9
$DIMSTYLE
  2
STANDARD
  9
$DIMCLRD
 70
     0
  9
$DIMCLRE
 70
     0
  9
$DIMCLRT
 70
     0
  9
$DIMTFAC
 40
1.0
  9
$DIMGAP
 40
0.09
  9
$LUNITS
 70
     2
  9
$LUPREC
 70
     4
  9
$SKETCHINC
 40
0.1
  9
$FILLETRAD
 40
0.5
  9
$AUNITS
 70
     0
  9
$AUPREC
 70
     0
  9
$MENU
  1
.
  9
$ELEVATION
 40
0.0
  9
$PELEVATION
 40
0.0
  9
$THICKNESS
 40
0.0
  9
$LIMCHECK
 70
     0
  9
$CHAMFERA
 40
0.0
  9
$CHAMFERB
 40
0.0
  9
$SKPOLY
 70
     0
  9
$TDCREATE
 40
2457171.708159722
  9
$TDUPDATE
 40
2457171.708159722
  9
$TDINDWG
 40
0.0000000116
  9
$TDUSRTIMER
 40
0.0000000116
  9
$USRTIMER
 70
     1
  9
$ANGBASE
 50
0.0
  9
$ANGDIR
 70
     0
  9
$PDMODE
 70
     0
  9
$PDSIZE
 40
0.0
  9
$PLINEWID
 40
0.0
  9
$COORDS
 70
     1
  9
$SPLFRAME
 70
     0
  9
$SPLINETYPE
 70
     6
  9
$SPLINESEGS
 70
     8
  9
$ATTDIA
 70
     0
  9
$ATTREQ
 70
     1
  9
$HANDLING
 70
     1
  9
$HANDSEED
  5
100000E9
  9
$SURFTAB1
 70
     6
  9
$SURFTAB2
 70
     6
  9
$SURFTYPE
 70
     6
  9
$SURFU
 70
     6
  9
$SURFV
 70
     6
  9
$UCSNAME
  2

  9
$UCSORG
 10
0.0
 20
0.0
 30
0.0
  9
$UCSXDIR
 10
1.0
 20
0.0
 30
0.0
  9
$UCSYDIR
 10
0.0
 20
1.0
 30
0.0
  9
$PUCSNAME
  2

  9
$PUCSORG
 10
0.0
 20
0.0
 30
0.0
  9
$PUCSXDIR
 10
1.0
 20
0.0
 30
0.0
  9
$PUCSYDIR
 10
0.0
 20
1.0
 30
0.0
  9
$USERI1
 70
     0
  9
$USERI2
 70
     0
  9
$USERI3
 70
     0
  9
$USERI4
 70
     0
  9
$USERI5
 70
     0
  9
$USERR1
 40
0.0
  9
$USERR2
 40
0.0
  9
$USERR3
 40
0.0
  9
$USERR4
 40
0.0
  9
$USERR5
 40
0.0
  9
$WORLDVIEW
 70
     1
  9
$SHADEDGE
 70
     3
  9
$SHADEDIF
 70
    70
  9
$TILEMODE
 70
     1
  9
$MAXACTVP
 70
    64
  9
$PLIMCHECK
 70
     0
  9
$PEXTMIN
 10
1.000000000000000E+20
 20
1.000000000000000E+20
 30
1.000000000000000E+20
  9
$PEXTMAX
 10
-1.000000000000000E+20
 20
-1.000000000000000E+20
 30
-1.000000000000000E+20
  9
$PLIMMIN
 10
0.0
 20
0.0
  9
$PLIMMAX
 10
12.0
 20
9.0
  9
$UNITMODE
 70
     0
  9
$VISRETAIN
 70
     1
  9
$PLINEGEN
 70
     0
  9
$PSLTSCALE
 70
     1
  0
ENDSEC
  0
SECTION
  2
TABLES
  0
TABLE
  2
VPORT
 70
     1
  0
VPORT
  2
*ACTIVE
 70
     0
 10
0.0
 20
0.0
 11
1.0
 21
1.0
 12
10.42990654205607
 22
4.5
 13
0.0
 23
0.0
 14
0.5
 24
0.5
 15
0.5
 25
0.5
 16
0.0
 26
0.0
 36
1.0
 17
0.0
 27
0.0
 37
0.0
 40
9.0
 41
1.972972972850329
 42
50.0
 43
0.0
 44
0.0
 50
0.0
 51
0.0
 71
     0
 72
   100
 73
     1
 74
     3
 75
     0
 76
     0
 77
     0
 78
     0
  0
ENDTAB
  0
TABLE
  2
LTYPE
 70
     5
  0
LTYPE
  2
CONTINUOUS
 70
     0
  3
Solid line
 72
    65
 73
     0
 40
0.0
  0
LTYPE
  2
HIDDEN
 70
     0
  3
Hidden line ____ ____ ____ ____ 
 72
    83
 73
     2
 40
0.125
 49
0.25
 49
-0.125
  0
LTYPE
  2
PHANTOM
 70
     0
  3
Phantom line ______  __  __  ______  __  __
 72
    83
 73
     6
 40
0.5
 49
0.625
 49
-0.125
 49
0.125
 49
-0.125
 49
0.125
 49
-0.125
  0
LTYPE
  2
CENTER
 70
     0
  3
Center line ____ _ ____ _ ____ _
 72
    83
 73
     4
 40
0.5
 49
0.625
 49
-0.125
 49
0.125
 49
-0.125
  0
LTYPE
  2
DASHED
 70
     0
  3
Dashed line __ __ __ __
 72
    83
 73
     2
 40
0.25
 49
0.5
 49
-0.25
  0
ENDTAB
  0
TABLE
  2
LAYER
 70
     5
  0
LAYER
  2
0
 70
     0
 62
     7
  6
CONTINUOUS
  0
LAYER
  2
HIDDEN
 70
     0
 62
    -7
  6
HIDDEN
  0
LAYER
  2
VISIBLE
 70
     0
 62
     7
  6
CONTINUOUS
  0
LAYER
  2
TANGENT_LINES
 70
     0
 62
     7
  6
CONTINUOUS
  0
LAYER
  2
INVISIBLE_LINES
 70
     0
 62
    -7
  6
CONTINUOUS
  0
ENDTAB
  0
TABLE
  2
STYLE
 70
     2
  0
STYLE
  2
STANDARD
 70
     0
 40
0.0
 41
1.0
 50
0.0
 71
     0
 42
0.2
  3
txt
  4

  0
STYLE
  2
ODATTFSTYLE
 70
     0
 40
0.0
 41
1.0
 50
0.0
 71
     0
 42
0.2
  3
Verdana.ttf
  4

  0
ENDTAB
  0
TABLE
  2
VIEW
 70
     0
  0
ENDTAB
  0
TABLE
  2
UCS
 70
     0
  0
ENDTAB
  0
TABLE
  2
APPID
 70
     1
  0
APPID
  2
ACAD
 70
     0
  0
ENDTAB
  0
TABLE
  2
DIMSTYLE
 70
     1
  0
DIMSTYLE
  2
STANDARD
 70
     0
  3

  4

  5

  6

  7

 40
1.0
 41
0.18
 42
0.0625
 43
0.38
 44
0.18
 45
0.0
 46
0.0
 47
0.0
 48
0.0
140
0.18
141
0.09
142
0.0
143
25.4
144
1.0
145
0.0
146
1.0
147
0.09
 71
     0
 72
     0
 73
     1
 74
     1
 75
     0
 76
     0
 77
     0
 78
     0
170
     0
171
     2
172
     0
173
     0
174
     0
175
     0
176
     0
177
     0
178
     0
  0
ENDTAB
  0
ENDSEC
  0
SECTION
  2
BLOCKS
  0
BLOCK
  8
0
  2
$MODEL_SPACE
 70
     0
 10
0.0
 20
0.0
 30
0.0
  3
$MODEL_SPACE
  1

  0
ENDBLK
  5
21
  8
0
  0
BLOCK
 67
     1
  8
0
  2
$PAPER_SPACE
 70
     0
 10
0.0
 20
0.0
 30
0.0
  3
$PAPER_SPACE
  1

  0
ENDBLK
  5
1D
 67
     1
  8
0
  0
ENDSEC
  0
SECTION
  2
ENTITIES
  0
LINE
  5
F4BB5
  8
VISIBLE
 10
0.3328815280339849
 20
-0.3821995590674122
 30
0.125
 11
1.003365459348724
 21
-0.3821995590674125
 31
0.125
  0
LINE
  5
F4BB6
  8
VISIBLE
 10
0.3328815280339849
 20
-0.3821995590674122
 30
0.125
 11
0.3328815280339849
 21
-0.8821995590674121
 31
0.125
  0
LINE
  5
F4BB7
  8
VISIBLE
 10
0.3328815280339849
 20
-0.8821995590674121
 30
0.125
 11
0.457881528033985
 21
-0.8821995590674121
 31
0.125
  0
LINE
  5
F4BB8
  8
VISIBLE
 10
0.457881528033985
 20
-0.8821995590674121
 30
0.125
 11
0.457881528033985
 21
-1.063199559067412
 31
0.125
  0
LINE
  5
F4BB9
  8
VISIBLE
 10
0.457881528033985
 20
-1.063199559067412
 30
0.125
 11
0.507881528033985
 21
-1.063199559067412
 31
0.125
  0
LINE
  5
F4BBA
  8
VISIBLE
 10
0.507881528033985
 20
-0.9756995590674121
 30
0.125
 11
0.507881528033985
 21
-1.063199559067412
 31
0.125
  0
LINE
  5
F4BBB
  8
VISIBLE
 10
0.507881528033985
 20
-0.9756995590674121
 30
0.125
 11
0.6398815280339849
 21
-0.9756995590674121
 31
0.125
  0
LINE
  5
F4BBC
  8
VISIBLE
 10
0.6398815280339849
 20
-0.9756995590674121
 30
0.125
 11
0.6398815280339849
 21
-1.063199559067412
 31
0.125
  0
LINE
  5
F4BBD
  8
VISIBLE
 10
0.6398815280339849
 20
-1.063199559067412
 30
0.125
 11
0.7078815280339849
 21
-1.063199559067412
 31
0.125
  0
LINE
  5
F4BBE
  8
VISIBLE
 10
0.7078815280339849
 20
-1.063199559067412
 30
0.125
 11
0.7078815280339849
 21
-1.201199559067412
 31
0.125
  0
LINE
  5
F4BBF
  8
VISIBLE
 10
0.6398815280339849
 20
-1.201199559067412
 30
0.125
 11
0.7078815280339849
 21
-1.201199559067412
 31
0.125
  0
LINE
  5
F4BC0
  8
VISIBLE
 10
0.6398815280339849
 20
-1.201199559067412
 30
0.125
 11
0.6398815280339849
 21
-1.288699559067412
 31
0.125
  0
LINE
  5
F4BC1
  8
VISIBLE
 10
0.507881528033985
 20
-1.288699559067412
 30
0.125
 11
0.6398815280339849
 21
-1.288699559067412
 31
0.125
  0
LINE
  5
F4BC2
  8
VISIBLE
 10
0.507881528033985
 20
-1.201199559067412
 30
0.125
 11
0.507881528033985
 21
-1.288699559067412
 31
0.125
  0
LINE
  5
F4BC3
  8
VISIBLE
 10
0.457881528033985
 20
-1.201199559067412
 30
0.125
 11
0.507881528033985
 21
-1.201199559067412
 31
0.125
  0
LINE
  5
F4BC4
  8
VISIBLE
 10
0.457881528033985
 20
-1.201199559067412
 30
0.125
 11
0.457881528033985
 21
-1.382199559067412
 31
0.125
  0
LINE
  5
F4BC5
  8
VISIBLE
 10
0.3328815280339849
 20
-1.382199559067412
 30
0.125
 11
0.457881528033985
 21
-1.382199559067412
 31
0.125
  0
LINE
  5
F4BC6
  8
VISIBLE
 10
0.3328815280339849
 20
-1.382199559067412
 30
0.125
 11
0.332881528033985
 21
-1.882199559067412
 31
0.125
  0
LINE
  5
F4BC7
  8
VISIBLE
 10
0.332881528033985
 20
-1.882199559067412
 30
0.125
 11
0.9890044846927863
 21
-1.882199559067412
 31
0.125
  0
LINE
  5
F4BC8
  8
VISIBLE
 10
0.9890044846927863
 20
-1.882199559067412
 30
0.125
 11
1.049004484692786
 21
-1.218781676363405
 31
0.125
  0
LINE
  5
F4BC9
  8
VISIBLE
 10
1.109004484692786
 20
-1.882199559067413
 30
0.125
 11
1.049004484692786
 21
-1.218781676363405
 31
0.125
  0
LINE
  5
F4BCA
  8
VISIBLE
 10
1.109004484692786
 20
-1.882199559067413
 30
0.125
 11
1.243365459348724
 21
-1.882199559067413
 31
0.125
  0
LINE
  5
F4BCB
  8
VISIBLE
 10
1.243365459348724
 20
-1.882199559067413
 30
0.125
 11
1.303365459348724
 21
-1.218781676363405
 31
0.125
  0
LINE
  5
F4BCC
  8
VISIBLE
 10
1.363365459348724
 20
-1.882199559067413
 30
0.125
 11
1.303365459348724
 21
-1.218781676363405
 31
0.125
  0
LINE
  5
F4BCD
  8
VISIBLE
 10
1.363365459348724
 20
-1.882199559067413
 30
0.125
 11
1.483365459348724
 21
-1.882199559067413
 31
0.125
  0
LINE
  5
F4BCE
  8
VISIBLE
 10
1.483365459348724
 20
-1.882199559067413
 30
0.125
 11
1.543365459348724
 21
-1.218781676363405
 31
0.125
  0
LINE
  5
F4BCF
  8
VISIBLE
 10
1.603365459348724
 20
-1.882199559067413
 30
0.125
 11
1.543365459348724
 21
-1.218781676363405
 31
0.125
  0
LINE
  5
F4BD0
  8
VISIBLE
 10
1.603365459348724
 20
-1.882199559067413
 30
0.125
 11
1.723365459348724
 21
-1.882199559067413
 31
0.125
  0
LINE
  5
F4BD1
  8
VISIBLE
 10
1.723365459348724
 20
-1.882199559067413
 30
0.125
 11
1.783365459348724
 21
-1.218781676363405
 31
0.125
  0
LINE
  5
F4BD2
  8
VISIBLE
 10
1.843365459348723
 20
-1.882199559067413
 30
0.125
 11
1.783365459348724
 21
-1.218781676363405
 31
0.125
  0
LINE
  5
F4BD3
  8
VISIBLE
 10
1.843365459348723
 20
-1.882199559067413
 30
0.125
 11
1.963365459348723
 21
-1.882199559067413
 31
0.125
  0
LINE
  5
F4BD4
  8
VISIBLE
 10
1.963365459348723
 20
-1.882199559067413
 30
0.125
 11
2.023365459348723
 21
-1.218781676363405
 31
0.125
  0
LINE
  5
F4BD5
  8
VISIBLE
 10
2.083365459348724
 20
-1.882199559067413
 30
0.125
 11
2.023365459348723
 21
-1.218781676363405
 31
0.125
  0
LINE
  5
F4BD6
  8
VISIBLE
 10
2.083365459348724
 20
-1.882199559067413
 30
0.125
 11
2.203365459348723
 21
-1.882199559067413
 31
0.125
  0
LINE
  5
F4BD7
  8
VISIBLE
 10
2.203365459348723
 20
-1.882199559067413
 30
0.125
 11
2.263365459348723
 21
-1.218781676363405
 31
0.125
  0
LINE
  5
F4BD8
  8
VISIBLE
 10
2.323365459348723
 20
-1.882199559067413
 30
0.125
 11
2.263365459348723
 21
-1.218781676363405
 31
0.125
  0
LINE
  5
F4BD9
  8
VISIBLE
 10
2.323365459348723
 20
-1.882199559067413
 30
0.125
 11
2.443365459348723
 21
-1.882199559067413
 31
0.125
  0
LINE
  5
F4BDA
  8
VISIBLE
 10
2.443365459348723
 20
-1.882199559067413
 30
0.125
 11
2.503365459348723
 21
-1.218781676363405
 31
0.125
  0
LINE
  5
F4BDB
  8
VISIBLE
 10
2.563365459348723
 20
-1.882199559067413
 30
0.125
 11
2.503365459348723
 21
-1.218781676363405
 31
0.125
  0
LINE
  5
F4BDC
  8
VISIBLE
 10
2.563365459348723
 20
-1.882199559067413
 30
0.125
 11
2.820766807039331
 21
-1.882199559067412
 31
0.125
  0
LINE
  5
F4BDD
  8
VISIBLE
 10
2.820766807039331
 20
-0.3821995590674122
 30
0.125
 11
2.820766807039331
 21
-1.882199559067412
 31
0.125
  0
LINE
  5
F4BDE
  8
VISIBLE
 10
2.563365459348723
 20
-0.3821995590674125
 30
0.125
 11
2.820766807039331
 21
-0.3821995590674122
 31
0.125
  0
LINE
  5
F4BDF
  8
VISIBLE
 10
2.563365459348723
 20
-0.3821995590674125
 30
0.125
 11
2.503365459348724
 21
-1.04561744177142
 31
0.125
  0
LINE
  5
F4BE0
  8
VISIBLE
 10
2.443365459348723
 20
-0.3821995590674131
 30
0.125
 11
2.503365459348724
 21
-1.04561744177142
 31
0.125
  0
LINE
  5
F4BE1
  8
VISIBLE
 10
2.323365459348723
 20
-0.382199559067412
 30
0.125
 11
2.443365459348723
 21
-0.3821995590674131
 31
0.125
  0
LINE
  5
F4BE2
  8
VISIBLE
 10
2.323365459348723
 20
-0.382199559067412
 30
0.125
 11
2.263365459348723
 21
-1.04561744177142
 31
0.125
  0
LINE
  5
F4BE3
  8
VISIBLE
 10
2.203365459348723
 20
-0.3821995590674127
 30
0.125
 11
2.263365459348723
 21
-1.04561744177142
 31
0.125
  0
LINE
  5
F4BE4
  8
VISIBLE
 10
2.083365459348724
 20
-0.3821995590674121
 30
0.125
 11
2.203365459348723
 21
-0.3821995590674127
 31
0.125
  0
LINE
  5
F4BE5
  8
VISIBLE
 10
2.083365459348724
 20
-0.3821995590674121
 30
0.125
 11
2.023365459348724
 21
-1.04561744177142
 31
0.125
  0
LINE
  5
F4BE6
  8
VISIBLE
 10
1.963365459348723
 20
-0.3821995590674127
 30
0.125
 11
2.023365459348724
 21
-1.04561744177142
 31
0.125
  0
LINE
  5
F4BE7
  8
VISIBLE
 10
1.843365459348723
 20
-0.3821995590674125
 30
0.125
 11
1.963365459348723
 21
-0.3821995590674127
 31
0.125
  0
LINE
  5
F4BE8
  8
VISIBLE
 10
1.843365459348723
 20
-0.3821995590674125
 30
0.125
 11
1.783365459348724
 21
-1.04561744177142
 31
0.125
  0
LINE
  5
F4BE9
  8
VISIBLE
 10
1.723365459348724
 20
-0.3821995590674125
 30
0.125
 11
1.783365459348724
 21
-1.04561744177142
 31
0.125
  0
LINE
  5
F4BEA
  8
VISIBLE
 10
1.603365459348724
 20
-0.3821995590674125
 30
0.125
 11
1.723365459348724
 21
-0.3821995590674125
 31
0.125
  0
LINE
  5
F4BEB
  8
VISIBLE
 10
1.603365459348724
 20
-0.3821995590674125
 30
0.125
 11
1.543365459348724
 21
-1.04561744177142
 31
0.125
  0
LINE
  5
F4BEC
  8
VISIBLE
 10
1.483365459348724
 20
-0.3821995590674125
 30
0.125
 11
1.543365459348724
 21
-1.04561744177142
 31
0.125
  0
LINE
  5
F4BED
  8
VISIBLE
 10
1.363365459348724
 20
-0.3821995590674125
 30
0.125
 11
1.483365459348724
 21
-0.3821995590674125
 31
0.125
  0
LINE
  5
F4BEE
  8
VISIBLE
 10
1.363365459348724
 20
-0.3821995590674125
 30
0.125
 11
1.303365459348724
 21
-1.04561744177142
 31
0.125
  0
LINE
  5
F4BEF
  8
VISIBLE
 10
1.243365459348724
 20
-0.3821995590674125
 30
0.125
 11
1.303365459348724
 21
-1.04561744177142
 31
0.125
  0
LINE
  5
F4BF0
  8
VISIBLE
 10
1.123365459348724
 20
-0.3821995590674125
 30
0.125
 11
1.243365459348724
 21
-0.3821995590674125
 31
0.125
  0
LINE
  5
F4BF1
  8
VISIBLE
 10
1.123365459348724
 20
-0.3821995590674125
 30
0.125
 11
1.063365459348724
 21
-1.04561744177142
 31
0.125
  0
LINE
  5
F4BF2
  8
VISIBLE
 10
1.003365459348724
 20
-0.3821995590674125
 30
0.125
 11
1.063365459348724
 21
-1.04561744177142
 31
0.125
  0
LINE
  5
F4BF3
  8
VISIBLE
 10
1.183365459348724
 20
-0.483367076935614
 30
0.125
 11
1.123365459348724
 21
-1.132199559067413
 31
0.125
  0
LINE
  5
F4BF4
  8
VISIBLE
 10
1.243365459348724
 20
-1.132199559067412
 30
0.125
 11
1.183365459348724
 21
-0.483367076935614
 31
0.125
  0
LINE
  5
F4BF5
  8
VISIBLE
 10
1.243365459348724
 20
-1.132199559067412
 30
0.125
 11
1.183365459348724
 21
-1.781032041199212
 31
0.125
  0
LINE
  5
F4BF6
  8
VISIBLE
 10
1.183365459348724
 20
-1.781032041199212
 30
0.125
 11
1.123365459348724
 21
-1.132199559067413
 31
0.125
  0
LINE
  5
F4BF7
  8
VISIBLE
 10
1.903365459348723
 20
-0.4833670769356138
 30
0.125
 11
1.843365459348723
 21
-1.132199559067413
 31
0.125
  0
LINE
  5
F4BF8
  8
VISIBLE
 10
1.963365459348724
 20
-1.132199559067412
 30
0.125
 11
1.903365459348723
 21
-0.4833670769356138
 31
0.125
  0
LINE
  5
F4BF9
  8
VISIBLE
 10
1.963365459348724
 20
-1.132199559067412
 30
0.125
 11
1.903365459348723
 21
-1.781032041199212
 31
0.125
  0
LINE
  5
F4BFA
  8
VISIBLE
 10
1.903365459348723
 20
-1.781032041199212
 30
0.125
 11
1.843365459348723
 21
-1.132199559067413
 31
0.125
  0
LINE
  5
F4BFB
  8
VISIBLE
 10
2.143365459348724
 20
-0.4833670769356131
 30
0.125
 11
2.083365459348723
 21
-1.132199559067412
 31
0.125
  0
LINE
  5
F4BFC
  8
VISIBLE
 10
2.203365459348723
 20
-1.132199559067412
 30
0.125
 11
2.143365459348724
 21
-0.4833670769356131
 31
0.125
  0
LINE
  5
F4BFD
  8
VISIBLE
 10
2.203365459348723
 20
-1.132199559067412
 30
0.125
 11
2.143365459348723
 21
-1.781032041199212
 31
0.125
  0
LINE
  5
F4BFE
  8
VISIBLE
 10
2.143365459348723
 20
-1.781032041199212
 30
0.125
 11
2.083365459348723
 21
-1.132199559067412
 31
0.125
  0
LINE
  5
F4BFF
  8
VISIBLE
 10
2.323365459348723
 20
-1.132199559067412
 30
0.125
 11
2.383365459348723
 21
-1.781032041199212
 31
0.125
  0
LINE
  5
F4C00
  8
VISIBLE
 10
2.323365459348723
 20
-1.132199559067412
 30
0.125
 11
2.383365459348723
 21
-0.4833670769356133
 31
0.125
  0
LINE
  5
F4C01
  8
VISIBLE
 10
2.383365459348723
 20
-0.4833670769356133
 30
0.125
 11
2.443365459348723
 21
-1.132199559067413
 31
0.125
  0
LINE
  5
F4C02
  8
VISIBLE
 10
2.383365459348723
 20
-1.781032041199212
 30
0.125
 11
2.443365459348723
 21
-1.132199559067413
 31
0.125
  0
LINE
  5
F4C03
  8
VISIBLE
 10
1.603365459348723
 20
-1.132199559067412
 30
0.125
 11
1.663365459348723
 21
-1.781032041199212
 31
0.125
  0
LINE
  5
F4C04
  8
VISIBLE
 10
1.603365459348723
 20
-1.132199559067412
 30
0.125
 11
1.663365459348724
 21
-0.4833670769356131
 31
0.125
  0
LINE
  5
F4C05
  8
VISIBLE
 10
1.663365459348724
 20
-0.4833670769356131
 30
0.125
 11
1.723365459348724
 21
-1.132199559067412
 31
0.125
  0
LINE
  5
F4C06
  8
VISIBLE
 10
1.663365459348723
 20
-1.781032041199212
 30
0.125
 11
1.723365459348724
 21
-1.132199559067412
 31
0.125
  0
LINE
  5
F4C07
  8
VISIBLE
 10
1.483365459348724
 20
-1.132199559067412
 30
0.125
 11
1.423365459348724
 21
-1.781032041199212
 31
0.125
  0
LINE
  5
F4C08
  8
VISIBLE
 10
1.423365459348724
 20
-1.781032041199212
 30
0.125
 11
1.363365459348724
 21
-1.132199559067413
 31
0.125
  0
LINE
  5
F4C09
  8
VISIBLE
 10
1.423365459348723
 20
-0.4833670769356133
 30
0.125
 11
1.363365459348724
 21
-1.132199559067413
 31
0.125
  0
LINE
  5
F4C0A
  8
VISIBLE
 10
1.483365459348724
 20
-1.132199559067412
 30
0.125
 11
1.423365459348723
 21
-0.4833670769356133
 31
0.125
  0
LINE
  5
F4C0B
  8
VISIBLE
 10
0.8833654593487242
 20
-1.132199559067412
 30
0.125
 11
0.9433654593487244
 21
-1.781032041199212
 31
0.125
  0
LINE
  5
F4C0C
  8
VISIBLE
 10
0.8833654593487242
 20
-1.132199559067412
 30
0.125
 11
0.9433654593487244
 21
-0.4833670769356133
 31
0.125
  0
LINE
  5
F4C0D
  8
VISIBLE
 10
0.9433654593487244
 20
-0.4833670769356133
 30
0.125
 11
1.003365459348724
 21
-1.132199559067413
 31
0.125
  0
LINE
  5
F4C0E
  8
VISIBLE
 10
0.9433654593487244
 20
-1.781032041199212
 30
0.125
 11
1.003365459348724
 21
-1.132199559067413
 31
0.125
  0
ENDSEC
  0
EOF
