  0
SECTION
  2
HEADER
  9
$ACADVER
  1
AC1009
  9
$DWGCODEPAGE
  3
undefined
  9
$INSBASE
 10
0.0
 20
0.0
 30
0.0
  9
$EXTMIN
 10
1.000000000000000E+20
 20
1.000000000000000E+20
 30
1.000000000000000E+20
  9
$EXTMAX
 10
-1.000000000000000E+20
 20
-1.000000000000000E+20
 30
-1.000000000000000E+20
  9
$LIMMIN
 10
0.0
 20
0.0
  9
$LIMMAX
 10
12.0
 20
9.0
  9
$ORTHOMODE
 70
     0
  9
$REGENMODE
 70
     1
  9
$FILLMODE
 70
     1
  9
$QTEXTMODE
 70
     0
  9
$MIRRTEXT
 70
     1
  9
$DRAGMODE
 70
     2
  9
$LTSCALE
 40
1.0
  9
$OSMODE
 70
    37
  9
$ATTMODE
 70
     1
  9
$TEXTSIZE
 40
0.2
  9
$TRACEWID
 40
0.05
  9
$TEXTSTYLE
  7
STANDARD
  9
$CLAYER
  8
0
  9
$CELTYPE
  6
BYLAYER
  9
$CECOLOR
 62
   256
  9
$DIMSCALE
 40
1.0
  9
$DIMASZ
 40
0.18
  9
$DIMEXO
 40
0.0625
  9
$DIMDLI
 40
0.38
  9
$DIMRND
 40
0.0
  9
$DIMDLE
 40
0.0
  9
$DIMEXE
 40
0.18
  9
$DIMTP
 40
0.0
  9
$DIMTM
 40
0.0
  9
$DIMTXT
 40
0.18
  9
$DIMCEN
 40
0.09
  9
$DIMTSZ
 40
0.0
  9
$DIMTOL
 70
     0
  9
$DIMLIM
 70
     0
  9
$DIMTIH
 70
     1
  9
$DIMTOH
 70
     1
  9
$DIMSE1
 70
     0
  9
$DIMSE2
 70
     0
  9
$DIMTAD
 70
     0
  9
$DIMZIN
 70
     0
  9
$DIMBLK
  1

  9
$DIMASO
 70
     1
  9
$DIMSHO
 70
     1
  9
$DIMPOST
  1

  9
$DIMAPOST
  1

  9
$DIMALT
 70
     0
  9
$DIMALTD
 70
     2
  9
$DIMALTF
 40
25.4
  9
$DIMLFAC
 40
1.0
  9
$DIMTOFL
 70
     0
  9
$DIMTVP
 40
0.0
  9
$DIMTIX
 70
     0
  9
$DIMSOXD
 70
     0
  9
$DIMSAH
 70
     0
  9
$DIMBLK1
  1

  9
$DIMBLK2
  1

  9
$DIMSTYLE
  2
STANDARD
  9
$DIMCLRD
 70
     0
  9
$DIMCLRE
 70
     0
  9
$DIMCLRT
 70
     0
  9
$DIMTFAC
 40
1.0
  9
$DIMGAP
 40
0.09
  9
$LUNITS
 70
     2
  9
$LUPREC
 70
     4
  9
$SKETCHINC
 40
0.1
  9
$FILLETRAD
 40
0.5
  9
$AUNITS
 70
     0
  9
$AUPREC
 70
     0
  9
$MENU
  1
.
  9
$ELEVATION
 40
0.0
  9
$PELEVATION
 40
0.0
  9
$THICKNESS
 40
0.0
  9
$LIMCHECK
 70
     0
  9
$CHAMFERA
 40
0.0
  9
$CHAMFERB
 40
0.0
  9
$SKPOLY
 70
     0
  9
$TDCREATE
 40
2457184.0775
  9
$TDUPDATE
 40
2457184.0775
  9
$TDINDWG
 40
0.0000000116
  9
$TDUSRTIMER
 40
0.0000000116
  9
$USRTIMER
 70
     1
  9
$ANGBASE
 50
0.0
  9
$ANGDIR
 70
     0
  9
$PDMODE
 70
     0
  9
$PDSIZE
 40
0.0
  9
$PLINEWID
 40
0.0
  9
$COORDS
 70
     1
  9
$SPLFRAME
 70
     0
  9
$SPLINETYPE
 70
     6
  9
$SPLINESEGS
 70
     8
  9
$ATTDIA
 70
     0
  9
$ATTREQ
 70
     1
  9
$HANDLING
 70
     1
  9
$HANDSEED
  5
1000014F
  9
$SURFTAB1
 70
     6
  9
$SURFTAB2
 70
     6
  9
$SURFTYPE
 70
     6
  9
$SURFU
 70
     6
  9
$SURFV
 70
     6
  9
$UCSNAME
  2

  9
$UCSORG
 10
0.0
 20
0.0
 30
0.0
  9
$UCSXDIR
 10
1.0
 20
0.0
 30
0.0
  9
$UCSYDIR
 10
0.0
 20
1.0
 30
0.0
  9
$PUCSNAME
  2

  9
$PUCSORG
 10
0.0
 20
0.0
 30
0.0
  9
$PUCSXDIR
 10
1.0
 20
0.0
 30
0.0
  9
$PUCSYDIR
 10
0.0
 20
1.0
 30
0.0
  9
$USERI1
 70
     0
  9
$USERI2
 70
     0
  9
$USERI3
 70
     0
  9
$USERI4
 70
     0
  9
$USERI5
 70
     0
  9
$USERR1
 40
0.0
  9
$USERR2
 40
0.0
  9
$USERR3
 40
0.0
  9
$USERR4
 40
0.0
  9
$USERR5
 40
0.0
  9
$WORLDVIEW
 70
     1
  9
$SHADEDGE
 70
     3
  9
$SHADEDIF
 70
    70
  9
$TILEMODE
 70
     1
  9
$MAXACTVP
 70
    64
  9
$PLIMCHECK
 70
     0
  9
$PEXTMIN
 10
1.000000000000000E+20
 20
1.000000000000000E+20
 30
1.000000000000000E+20
  9
$PEXTMAX
 10
-1.000000000000000E+20
 20
-1.000000000000000E+20
 30
-1.000000000000000E+20
  9
$PLIMMIN
 10
0.0
 20
0.0
  9
$PLIMMAX
 10
12.0
 20
9.0
  9
$UNITMODE
 70
     0
  9
$VISRETAIN
 70
     1
  9
$PLINEGEN
 70
     0
  9
$PSLTSCALE
 70
     1
  0
ENDSEC
  0
SECTION
  2
TABLES
  0
TABLE
  2
VPORT
 70
     1
  0
VPORT
  2
*ACTIVE
 70
     0
 10
0.0
 20
0.0
 11
1.0
 21
1.0
 12
10.42990654205607
 22
4.5
 13
0.0
 23
0.0
 14
0.5
 24
0.5
 15
0.5
 25
0.5
 16
0.0
 26
0.0
 36
1.0
 17
0.0
 27
0.0
 37
0.0
 40
9.0
 41
1.972972972850329
 42
50.0
 43
0.0
 44
0.0
 50
0.0
 51
0.0
 71
     0
 72
   100
 73
     1
 74
     3
 75
     0
 76
     0
 77
     0
 78
     0
  0
ENDTAB
  0
TABLE
  2
LTYPE
 70
     5
  0
LTYPE
  2
CONTINUOUS
 70
     0
  3
Solid line
 72
    65
 73
     0
 40
0.0
  0
LTYPE
  2
HIDDEN
 70
     0
  3
Hidden line ____ ____ ____ ____ 
 72
    83
 73
     2
 40
0.125
 49
0.25
 49
-0.125
  0
LTYPE
  2
PHANTOM
 70
     0
  3
Phantom line ______  __  __  ______  __  __
 72
    83
 73
     6
 40
0.5
 49
0.625
 49
-0.125
 49
0.125
 49
-0.125
 49
0.125
 49
-0.125
  0
LTYPE
  2
CENTER
 70
     0
  3
Center line ____ _ ____ _ ____ _
 72
    83
 73
     4
 40
0.5
 49
0.625
 49
-0.125
 49
0.125
 49
-0.125
  0
LTYPE
  2
DASHED
 70
     0
  3
Dashed line __ __ __ __
 72
    83
 73
     2
 40
0.25
 49
0.5
 49
-0.25
  0
ENDTAB
  0
TABLE
  2
LAYER
 70
     5
  0
LAYER
  2
0
 70
     0
 62
     7
  6
CONTINUOUS
  0
LAYER
  2
HIDDEN
 70
     0
 62
    -7
  6
HIDDEN
  0
LAYER
  2
VISIBLE
 70
     0
 62
     7
  6
CONTINUOUS
  0
LAYER
  2
TANGENT_LINES
 70
     0
 62
     7
  6
CONTINUOUS
  0
LAYER
  2
INVISIBLE_LINES
 70
     0
 62
    -7
  6
CONTINUOUS
  0
ENDTAB
  0
TABLE
  2
STYLE
 70
     2
  0
STYLE
  2
STANDARD
 70
     0
 40
0.0
 41
1.0
 50
0.0
 71
     0
 42
0.2
  3
txt
  4

  0
STYLE
  2
ODATTFSTYLE
 70
     0
 40
0.0
 41
1.0
 50
0.0
 71
     0
 42
0.2
  3
Verdana.ttf
  4

  0
ENDTAB
  0
TABLE
  2
VIEW
 70
     0
  0
ENDTAB
  0
TABLE
  2
UCS
 70
     0
  0
ENDTAB
  0
TABLE
  2
APPID
 70
     1
  0
APPID
  2
ACAD
 70
     0
  0
ENDTAB
  0
TABLE
  2
DIMSTYLE
 70
     1
  0
DIMSTYLE
  2
STANDARD
 70
     0
  3

  4

  5

  6

  7

 40
1.0
 41
0.18
 42
0.0625
 43
0.38
 44
0.18
 45
0.0
 46
0.0
 47
0.0
 48
0.0
140
0.18
141
0.09
142
0.0
143
25.4
144
1.0
145
0.0
146
1.0
147
0.09
 71
     0
 72
     0
 73
     1
 74
     1
 75
     0
 76
     0
 77
     0
 78
     0
170
     0
171
     2
172
     0
173
     0
174
     0
175
     0
176
     0
177
     0
178
     0
  0
ENDTAB
  0
ENDSEC
  0
SECTION
  2
BLOCKS
  0
BLOCK
  8
0
  2
$MODEL_SPACE
 70
     0
 10
0.0
 20
0.0
 30
0.0
  3
$MODEL_SPACE
  1

  0
ENDBLK
  5
21
  8
0
  0
BLOCK
 67
     1
  8
0
  2
$PAPER_SPACE
 70
     0
 10
0.0
 20
0.0
 30
0.0
  3
$PAPER_SPACE
  1

  0
ENDBLK
  5
1D
 67
     1
  8
0
  0
ENDSEC
  0
SECTION
  2
ENTITIES
  0
LINE
  5
F457A
  8
VISIBLE
 10
-5.830336912319421
 20
-2.541949355481656
 30
0.0
 11
-7.330336912319423
 21
-2.555220071302931
 31
0.0
  0
LINE
  5
F457B
  8
VISIBLE
 10
1.055714909797582
 20
-2.375797312407295
 30
0.0
 11
1.143306808923503
 21
-2.375797312407295
 31
0.0
  0
LINE
  5
F457C
  8
VISIBLE
 10
-6.64933691231942
 20
-2.375797312407296
 30
0.0
 11
-6.64933691231942
 21
-2.425797312407296
 31
0.0
  0
LINE
  5
F457D
  8
VISIBLE
 10
-6.33033691231942
 20
-2.425797312407297
 30
0.0
 11
-6.51133691231942
 21
-2.425797312407297
 31
0.0
  0
LINE
  5
F457E
  8
VISIBLE
 10
-6.423836912319421
 20
-2.375797312407297
 30
0.0
 11
-6.51133691231942
 21
-2.375797312407297
 31
0.0
  0
LINE
  5
F457F
  8
VISIBLE
 10
0.9177149097975814
 20
-2.178138643268526
 30
0.0
 11
0.9177149097975814
 21
-2.255797312407295
 31
0.0
  0
LINE
  5
F4580
  8
VISIBLE
 10
-1.606785090202417
 20
-2.246949355481656
 30
0.0
 11
-1.606785090202417
 21
-2.366949355481657
 31
0.0
  0
LINE
  5
F4581
  8
VISIBLE
 10
-1.337754549053246
 20
0.9403257971709658
 30
0.0
 11
-1.227754549053246
 21
0.9403257971709658
 31
0.0
  0
LINE
  5
F4582
  8
VISIBLE
 10
-6.289756477880893
 20
1.569831266898538
 30
0.0
 11
-6.289756477880893
 21
-0.430168733101462
 31
0.0
  0
LINE
  5
F4583
  8
VISIBLE
 10
0.9177149097975814
 20
-2.375797312407295
 30
0.0
 11
0.9177149097975814
 21
-2.425797312407295
 31
0.0
  0
LINE
  5
F4584
  8
VISIBLE
 10
-6.64933691231942
 20
-2.255797312407297
 30
0.0
 11
-6.736928811445343
 21
-2.255797312407297
 31
0.0
  0
LINE
  5
F4585
  8
VISIBLE
 10
-1.832285090202417
 20
-2.161949355481656
 30
0.0
 11
-1.694285090202416
 21
-2.161949355481656
 31
0.0
  0
LINE
  5
F4586
  8
VISIBLE
 10
1.055714909797582
 20
-2.178138643268526
 30
0.0
 11
1.055714909797582
 21
-2.255797312407295
 31
0.0
  0
LINE
  5
F4587
  8
VISIBLE
 10
-3.899336912319422
 20
-2.161949355481656
 30
0.0
 11
-3.899336912319422
 21
-2.246949355481657
 31
0.0
  0
LINE
  5
F4588
  8
VISIBLE
 10
-3.180336912319426
 20
-2.411949355481657
 30
0.0
 11
-3.435336912319427
 21
-2.411949355481657
 31
0.0
  0
LINE
  5
F4589
  8
VISIBLE
 10
-1.337754549053246
 20
0.8303257971709658
 30
0.0
 11
-1.227754549053247
 21
0.8303257971709658
 31
0.0
  0
LINE
  5
F458A
  8
VISIBLE
 10
-2.374801406677969
 20
-0.3866120054050232
 30
0.0
 11
-2.264801406677969
 21
-0.3866120054050232
 31
0.0
  0
LINE
  5
F458B
  8
VISIBLE
 10
-1.832285090202417
 20
-2.541949355481656
 30
0.0
 11
-1.694285090202416
 21
-2.541949355481656
 31
0.0
  0
LINE
  5
F458C
  8
VISIBLE
 10
-3.21882059584387
 20
-0.3866120054050232
 30
0.0
 11
-3.32882059584387
 21
-0.3866120054050232
 31
0.0
  0
LINE
  5
F458D
  8
VISIBLE
 10
-6.51133691231942
 20
-2.178138643268526
 30
0.0
 11
-6.64933691231942
 21
-2.178138643268526
 31
0.0
  0
LINE
  5
F458E
  8
VISIBLE
 10
-1.337754549053246
 20
0.9403257971709658
 30
0.0
 11
-1.337754549053246
 21
0.8303257971709658
 31
0.0
  0
LINE
  5
F458F
  8
VISIBLE
 10
1.055714909797582
 20
-2.255797312407295
 30
0.0
 11
1.143306808923503
 21
-2.255797312407295
 31
0.0
  0
LINE
  5
F4590
  8
VISIBLE
 10
-4.330336912319427
 20
3.458050644518344
 30
0.0
 11
-2.830336912319427
 21
3.458050644518344
 31
0.0
  0
LINE
  5
F4591
  8
VISIBLE
 10
-6.51133691231942
 20
-2.375797312407296
 30
0.0
 11
-6.51133691231942
 21
-2.425797312407296
 31
0.0
  0
LINE
  5
F4592
  8
VISIBLE
 10
-2.013285090202416
 20
-2.416949355481657
 30
0.0
 11
-2.013285090202416
 21
-2.541949355481656
 31
0.0
  0
LINE
  5
F4593
  8
VISIBLE
 10
0.8302149097975818
 20
-2.375797312407295
 30
0.0
 11
0.917714909797582
 21
-2.375797312407295
 31
0.0
  0
LINE
  5
F4594
  8
VISIBLE
 10
-3.673836912319422
 20
-2.246949355481657
 30
0.0
 11
-3.761336912319422
 21
-2.246949355481657
 31
0.0
  0
LINE
  5
F4595
  8
VISIBLE
 10
-4.255867453468594
 20
0.940325797170966
 30
0.0
 11
-4.365867453468593
 21
0.940325797170966
 31
0.0
  0
LINE
  5
F4596
  8
VISIBLE
 10
-4.080336912319423
 20
-2.416949355481657
 30
0.0
 11
-4.080336912319423
 21
-2.541949355481657
 31
0.0
  0
LINE
  5
F4597
  8
VISIBLE
 10
-5.830336912319424
 20
3.458050644518344
 30
0.0
 11
-5.830336912319424
 21
2.458050644518343
 31
0.0
  0
LINE
  5
F4598
  8
VISIBLE
 10
-3.899336912319422
 20
-2.416949355481657
 30
0.0
 11
-4.080336912319423
 21
-2.416949355481657
 31
0.0
  0
LINE
  5
F4599
  8
VISIBLE
 10
-1.694285090202416
 20
-2.416949355481657
 30
0.0
 11
-1.513285090202416
 21
-2.416949355481657
 31
0.0
  0
LINE
  5
F459A
  8
VISIBLE
 10
-6.51133691231942
 20
-2.547974260464515
 30
0.0
 11
-6.51133691231942
 21
-2.550797312407295
 31
0.0
  0
LINE
  5
F459B
  8
VISIBLE
 10
0.9177149097975814
 20
-2.547974260464514
 30
0.0
 11
0.9177149097975814
 21
-2.550797312407294
 31
0.0
  0
LINE
  5
F459C
  8
VISIBLE
 10
-3.180336912319426
 20
-2.031949355481657
 30
0.0
 11
-3.435336912319427
 21
-2.031949355481657
 31
0.0
  0
LINE
  5
F459D
  8
VISIBLE
 10
-3.653384783077894
 20
0.2982909105776457
 30
0.0
 11
-3.653384783077894
 21
0.1882909105776457
 31
0.0
  0
LINE
  5
F459E
  8
VISIBLE
 10
-2.830336912319427
 20
-2.541949355481656
 30
0.0
 11
-4.330336912319422
 21
-2.541949355481658
 31
0.0
  0
LINE
  5
F459F
  8
VISIBLE
 10
-1.919785090202417
 20
-2.246949355481656
 30
0.0
 11
-1.832285090202417
 21
-2.246949355481656
 31
0.0
  0
LINE
  5
F45A0
  8
VISIBLE
 10
1.143306808923503
 20
-2.255797312407295
 30
0.0
 11
1.143306808923503
 21
-2.375797312407295
 31
0.0
  0
LINE
  5
F45A1
  8
VISIBLE
 10
-2.013285090202416
 20
-2.541949355481656
 30
0.0
 11
-1.513285090202416
 21
-2.541949355481656
 31
0.0
  0
LINE
  5
F45A2
  8
VISIBLE
 10
-3.763384783077894
 20
0.2982909105776456
 30
0.0
 11
-3.763384783077894
 21
0.1882909105776456
 31
0.0
  0
LINE
  5
F45A3
  8
VISIBLE
 10
0.8302149097975818
 20
-2.255797312407295
 30
0.0
 11
0.917714909797582
 21
-2.255797312407295
 31
0.0
  0
LINE
  5
F45A4
  8
VISIBLE
 10
-6.33033691231942
 20
-2.550797312407296
 30
0.0
 11
-6.830428811445342
 21
-2.550797312407296
 31
0.0
  0
LINE
  5
F45A5
  8
VISIBLE
 10
-6.51133691231942
 20
-2.550797312407294
 30
0.0
 11
-6.649336912319421
 21
-2.550797312407294
 31
0.0
  0
LINE
  5
F45A6
  8
VISIBLE
 10
-5.830336912319424
 20
2.458050644518344
 30
0.0
 11
-6.289756477880892
 21
1.569831266898539
 31
0.0
  0
LINE
  5
F45A7
  8
VISIBLE
 10
-3.899336912319422
 20
-2.366949355481657
 30
0.0
 11
-3.986836912319422
 21
-2.366949355481657
 31
0.0
  0
ARC
  5
F45A8
  8
VISIBLE
 10
-3.180336912319426
 20
-2.131949355481657
 30
0.0
 40
0.1
 50
0.0
 51
90.0
  0
LINE
  5
F45A9
  8
VISIBLE
 10
0.9177149097975814
 20
-2.178138643268526
 30
0.0
 11
1.055714909797582
 21
-2.178138643268526
 31
0.0
  0
LINE
  5
F45AA
  8
VISIBLE
 10
-1.919785090202417
 20
-2.366949355481657
 30
0.0
 11
-1.832285090202417
 21
-2.366949355481657
 31
0.0
  0
LINE
  5
F45AB
  8
VISIBLE
 10
-6.830428811445342
 20
-2.425797312407296
 30
0.0
 11
-6.830428811445342
 21
-2.550797312407296
 31
0.0
  0
LINE
  5
F45AC
  8
VISIBLE
 10
-3.761336912319422
 20
-2.541949355481656
 30
0.0
 11
-3.899336912319422
 21
-2.541949355481656
 31
0.0
  0
LINE
  5
F45AD
  8
VISIBLE
 10
1.055714909797582
 20
-2.549195166320071
 30
0.0
 11
1.055714909797582
 21
-2.550797312407295
 31
0.0
  0
LINE
  5
F45AE
  8
VISIBLE
 10
-4.255867453468594
 20
0.8303257971709658
 30
0.0
 11
-4.365867453468593
 21
0.8303257971709658
 31
0.0
  0
LINE
  5
F45AF
  8
VISIBLE
 10
-6.64933691231942
 20
-2.425797312407297
 30
0.0
 11
-6.830428811445342
 21
-2.425797312407297
 31
0.0
  0
LINE
  5
F45B0
  8
VISIBLE
 10
-1.919785090202417
 20
-2.246949355481656
 30
0.0
 11
-1.919785090202417
 21
-2.366949355481657
 31
0.0
  0
LINE
  5
F45B1
  8
VISIBLE
 10
0.917714909797582
 20
-2.550797312407294
 30
0.0
 11
1.055714909797582
 21
-2.550797312407294
 31
0.0
  0
LINE
  5
F45B2
  8
VISIBLE
 10
-3.653384783077894
 20
0.2982909105776459
 30
0.0
 11
-3.763384783077894
 21
0.2982909105776458
 31
0.0
  0
LINE
  5
F45B3
  8
VISIBLE
 10
-6.649336912319419
 20
-2.178138643268527
 30
0.0
 11
-6.649336912319419
 21
-2.255797312407295
 31
0.0
  0
LINE
  5
F45B4
  8
VISIBLE
 10
-3.080336912319426
 20
-2.131949355481657
 30
0.0
 11
-3.080336912319426
 21
-2.311949355481657
 31
0.0
  0
LINE
  5
F45B5
  8
VISIBLE
 10
1.055714909797582
 20
-2.375797312407295
 30
0.0
 11
1.055714909797582
 21
-2.425797312407295
 31
0.0
  0
LINE
  5
F45B6
  8
VISIBLE
 10
-6.64933691231942
 20
-2.375797312407297
 30
0.0
 11
-6.736928811445343
 21
-2.375797312407297
 31
0.0
  0
LINE
  5
F45B7
  8
VISIBLE
 10
-6.64933691231942
 20
-2.549195166320072
 30
0.0
 11
-6.64933691231942
 21
-2.550797312407295
 31
0.0
  0
LINE
  5
F45B8
  8
VISIBLE
 10
-6.289756477880893
 20
-0.4301687331014642
 30
0.0
 11
-4.330336912319426
 21
3.458050644518344
 31
0.0
  0
LINE
  5
F45B9
  8
VISIBLE
 10
-3.21882059584387
 20
-0.3866120054050233
 30
0.0
 11
-3.21882059584387
 21
-0.4966120054050233
 31
0.0
  0
LINE
  5
F45BA
  8
VISIBLE
 10
-6.736928811445343
 20
-2.255797312407296
 30
0.0
 11
-6.736928811445343
 21
-2.375797312407296
 31
0.0
  0
LINE
  5
F45BB
  8
VISIBLE
 10
-1.694285090202416
 20
-2.246949355481656
 30
0.0
 11
-1.606785090202417
 21
-2.246949355481656
 31
0.0
  0
LINE
  5
F45BC
  8
VISIBLE
 10
-6.33033691231942
 20
-2.425797312407296
 30
0.0
 11
-6.33033691231942
 21
-2.550797312407296
 31
0.0
  0
LINE
  5
F45BD
  8
VISIBLE
 10
0.8302149097975814
 20
-2.255797312407295
 30
0.0
 11
0.8302149097975814
 21
-2.375797312407295
 31
0.0
  0
LINE
  5
F45BE
  8
VISIBLE
 10
-1.513285090202416
 20
-2.416949355481657
 30
0.0
 11
-1.513285090202416
 21
-2.541949355481656
 31
0.0
  0
LINE
  5
F45BF
  8
VISIBLE
 10
-6.423836912319421
 20
-2.255797312407297
 30
0.0
 11
-6.51133691231942
 21
-2.255797312407297
 31
0.0
  0
LINE
  5
F45C0
  8
VISIBLE
 10
-3.580336912319422
 20
-2.416949355481657
 30
0.0
 11
-3.761336912319422
 21
-2.416949355481657
 31
0.0
  0
LINE
  5
F45C1
  8
VISIBLE
 10
-3.761336912319422
 20
-2.366949355481657
 30
0.0
 11
-3.761336912319422
 21
-2.416949355481657
 31
0.0
  0
LINE
  5
F45C2
  8
VISIBLE
 10
-3.870917346757956
 20
-0.6537299778618507
 30
0.0
 11
-3.870917346757956
 21
1.34627002213815
 31
0.0
  0
LINE
  5
F45C3
  8
VISIBLE
 10
-1.830237219443945
 20
0.2982909105776458
 30
0.0
 11
-1.830237219443945
 21
0.1882909105776459
 31
0.0
  0
LINE
  5
F45C4
  8
VISIBLE
 10
-3.673836912319422
 20
-2.246949355481657
 30
0.0
 11
-3.673836912319422
 21
-2.366949355481657
 31
0.0
  0
LINE
  5
F45C5
  8
VISIBLE
 10
0.7367149097975819
 20
-2.550797312407295
 30
0.0
 11
1.236806808923503
 21
-2.550797312407295
 31
0.0
  0
ARC
  5
F45C6
  8
VISIBLE
 10
-3.180336912319426
 20
-2.311949355481657
 30
0.0
 40
0.1
 50
270.0
 51
0.0
  0
LINE
  5
F45C7
  8
VISIBLE
 10
-3.899336912319422
 20
-2.366949355481657
 30
0.0
 11
-3.899336912319422
 21
-2.416949355481657
 31
0.0
  0
LINE
  5
F45C8
  8
VISIBLE
 10
-7.330336912319423
 20
-2.555220071302932
 30
0.0
 11
-7.330336912319425
 21
3.458050644518344
 31
0.0
  0
LINE
  5
F45C9
  8
VISIBLE
 10
-3.32882059584387
 20
-0.3866120054050233
 30
0.0
 11
-3.32882059584387
 21
-0.4966120054050233
 31
0.0
  0
LINE
  5
F45CA
  8
VISIBLE
 10
-6.423836912319419
 20
-2.255797312407295
 30
0.0
 11
-6.423836912319419
 21
-2.375797312407296
 31
0.0
  0
LINE
  5
F45CB
  8
VISIBLE
 10
-3.761336912319422
 20
-2.161949355481656
 30
0.0
 11
-3.761336912319422
 21
-2.246949355481657
 31
0.0
  0
LINE
  5
F45CC
  8
VISIBLE
 10
1.236806808923503
 20
-2.425797312407295
 30
0.0
 11
1.236806808923503
 21
-2.550797312407295
 31
0.0
  0
LINE
  5
F45CD
  8
VISIBLE
 10
-2.013285090202416
 20
-2.416949355481657
 30
0.0
 11
-1.832285090202417
 21
-2.416949355481657
 31
0.0
  0
LINE
  5
F45CE
  8
VISIBLE
 10
-2.763285090202414
 20
3.458050644518344
 30
0.0
 11
-2.763285090202412
 21
-2.541949355481657
 31
0.0
  0
LINE
  5
F45CF
  8
VISIBLE
 10
-1.263285090202416
 20
-1.541949355481655
 30
0.0
 11
-1.722704655763883
 21
-0.6537299778618504
 31
0.0
  0
LINE
  5
F45D0
  8
VISIBLE
 10
-1.263285090202416
 20
-2.541949355481655
 30
0.0
 11
-1.263285090202416
 21
-1.541949355481655
 31
0.0
  0
LINE
  5
F45D1
  8
VISIBLE
 10
-1.722704655763887
 20
1.346270022138157
 30
0.0
 11
0.2367149097975819
 21
-2.541949355481655
 31
0.0
  0
LINE
  5
F45D2
  8
VISIBLE
 10
-1.722704655763883
 20
-0.6537299778618504
 30
0.0
 11
-1.722704655763883
 21
1.34627002213815
 31
0.0
  0
LINE
  5
F45D3
  8
VISIBLE
 10
1.736714909797584
 20
3.458050644518345
 30
0.0
 11
0.2367149097975841
 21
3.458050644518345
 31
0.0
  0
LINE
  5
F45D4
  8
VISIBLE
 10
1.736714909797584
 20
-2.55522007130293
 30
0.0
 11
1.736714909797584
 21
3.458050644518345
 31
0.0
  0
LINE
  5
F45D5
  8
VISIBLE
 10
0.2367149097975842
 20
2.458050644518344
 30
0.0
 11
0.6961344753590514
 21
1.569831266898539
 31
0.0
  0
LINE
  5
F45D6
  8
VISIBLE
 10
0.2367149097975841
 20
3.458050644518344
 30
0.0
 11
0.2367149097975842
 21
2.458050644518344
 31
0.0
  0
LINE
  5
F45D7
  8
VISIBLE
 10
0.6961344753590543
 20
-0.4301687331014669
 30
0.0
 11
-1.263285090202413
 21
3.458050644518344
 31
0.0
  0
LINE
  5
F45D8
  8
VISIBLE
 10
0.6961344753590514
 20
1.569831266898539
 30
0.0
 11
0.6961344753590517
 21
-0.4301687331014612
 31
0.0
  0
LINE
  5
F45D9
  8
VISIBLE
 10
-2.413285090202412
 20
-2.031949355481657
 30
0.0
 11
-2.158285090202412
 21
-2.031949355481657
 31
0.0
  0
LINE
  5
F45DA
  8
VISIBLE
 10
-1.263285090202413
 20
3.458050644518344
 30
0.0
 11
-2.763285090202413
 21
3.458050644518344
 31
0.0
  0
LINE
  5
F45DB
  8
VISIBLE
 10
0.7367149097975814
 20
-2.425797312407295
 30
0.0
 11
0.7367149097975814
 21
-2.550797312407295
 31
0.0
  0
LINE
  5
F45DC
  8
VISIBLE
 10
-3.580336912319422
 20
-2.416949355481657
 30
0.0
 11
-3.580336912319422
 21
-2.541949355481656
 31
0.0
  0
LINE
  5
F45DD
  8
VISIBLE
 10
-2.763285090202412
 20
-2.541949355481657
 30
0.0
 11
-1.263285090202416
 21
-2.541949355481656
 31
0.0
  0
ARC
  5
F45DE
  8
VISIBLE
 10
-3.435336912319427
 20
-2.311949355481657
 30
0.0
 40
0.1
 50
180.0
 51
270.0
  0
LINE
  5
F45DF
  8
VISIBLE
 10
-7.330336912319424
 20
3.458050644518344
 30
0.0
 11
-5.830336912319424
 21
3.458050644518344
 31
0.0
  0
LINE
  5
F45E0
  8
VISIBLE
 10
-3.899336912319422
 20
-2.246949355481657
 30
0.0
 11
-3.986836912319422
 21
-2.246949355481657
 31
0.0
  0
LINE
  5
F45E1
  8
VISIBLE
 10
-3.761336912319422
 20
-2.161949355481656
 30
0.0
 11
-3.899336912319422
 21
-2.161949355481656
 31
0.0
  0
LINE
  5
F45E2
  8
VISIBLE
 10
-3.580336912319422
 20
-2.541949355481656
 30
0.0
 11
-4.080336912319423
 21
-2.541949355481656
 31
0.0
  0
LINE
  5
F45E3
  8
VISIBLE
 10
-2.513285090202412
 20
-2.131949355481657
 30
0.0
 11
-2.513285090202412
 21
-2.311949355481657
 31
0.0
  0
LINE
  5
F45E4
  8
VISIBLE
 10
-2.058285090202412
 20
-2.131949355481657
 30
0.0
 11
-2.058285090202411
 21
-2.311949355481657
 31
0.0
  0
LINE
  5
F45E5
  8
VISIBLE
 10
-2.413285090202412
 20
-2.411949355481657
 30
0.0
 11
-2.158285090202412
 21
-2.411949355481657
 31
0.0
  0
ARC
  5
F45E6
  8
VISIBLE
 10
-3.435336912319427
 20
-2.131949355481657
 30
0.0
 40
0.1
 50
90.0
 51
180.0
  0
LINE
  5
F45E7
  8
VISIBLE
 10
-1.940237219443945
 20
0.2982909105776458
 30
0.0
 11
-1.830237219443945
 21
0.2982909105776458
 31
0.0
  0
LINE
  5
F45E8
  8
VISIBLE
 10
-3.653384783077894
 20
0.1882909105776459
 30
0.0
 11
-3.763384783077894
 21
0.1882909105776459
 31
0.0
  0
LINE
  5
F45E9
  8
VISIBLE
 10
-3.535336912319427
 20
-2.131949355481657
 30
0.0
 11
-3.535336912319427
 21
-2.311949355481657
 31
0.0
  0
LINE
  5
F45EA
  8
VISIBLE
 10
-1.694285090202416
 20
-2.161949355481656
 30
0.0
 11
-1.694285090202416
 21
-2.246949355481656
 31
0.0
  0
LINE
  5
F45EB
  8
VISIBLE
 10
-2.374801406677969
 20
-0.3866120054050232
 30
0.0
 11
-2.374801406677969
 21
-0.4966120054050231
 31
0.0
  0
ARC
  5
F45EC
  8
VISIBLE
 10
-2.413285090202412
 20
-2.131949355481657
 30
0.0
 40
0.1
 50
90.0
 51
180.0
  0
LINE
  5
F45ED
  8
VISIBLE
 10
-1.832285090202417
 20
-2.366949355481657
 30
0.0
 11
-1.832285090202417
 21
-2.416949355481657
 31
0.0
  0
LINE
  5
F45EE
  8
VISIBLE
 10
-4.330336912319423
 20
-1.541949355481656
 30
0.0
 11
-3.870917346757956
 21
-0.6537299778618507
 31
0.0
  0
LINE
  5
F45EF
  8
VISIBLE
 10
-1.227754549053247
 20
0.9403257971709658
 30
0.0
 11
-1.227754549053247
 21
0.8303257971709658
 31
0.0
  0
LINE
  5
F45F0
  8
VISIBLE
 10
-3.673836912319422
 20
-2.366949355481657
 30
0.0
 11
-3.761336912319422
 21
-2.366949355481657
 31
0.0
  0
LINE
  5
F45F1
  8
VISIBLE
 10
-4.255867453468594
 20
0.9403257971709654
 30
0.0
 11
-4.255867453468594
 21
0.8303257971709653
 31
0.0
  0
LINE
  5
F45F2
  8
VISIBLE
 10
-1.832285090202417
 20
-2.161949355481656
 30
0.0
 11
-1.832285090202417
 21
-2.246949355481656
 31
0.0
  0
LINE
  5
F45F3
  8
VISIBLE
 10
-2.374801406677969
 20
-0.4966120054050231
 30
0.0
 11
-2.264801406677969
 21
-0.4966120054050231
 31
0.0
  0
ARC
  5
F45F4
  8
VISIBLE
 10
-2.158285090202412
 20
-2.131949355481657
 30
0.0
 40
0.1
 50
0.0
 51
90.0
  0
LINE
  5
F45F5
  8
VISIBLE
 10
-2.830336912319427
 20
3.458050644518344
 30
0.0
 11
-2.830336912319426
 21
-2.541949355481657
 31
0.0
  0
LINE
  5
F45F6
  8
VISIBLE
 10
1.055714909797582
 20
-2.425797312407295
 30
0.0
 11
1.236806808923503
 21
-2.425797312407295
 31
0.0
  0
LINE
  5
F45F7
  8
VISIBLE
 10
-3.870917346757957
 20
1.346270022138152
 30
0.0
 11
-5.830336912319422
 21
-2.541949355481656
 31
0.0
  0
LINE
  5
F45F8
  8
VISIBLE
 10
-1.694285090202416
 20
-2.366949355481657
 30
0.0
 11
-1.694285090202416
 21
-2.416949355481657
 31
0.0
  0
ARC
  5
F45F9
  8
VISIBLE
 10
-2.158285090202412
 20
-2.311949355481657
 30
0.0
 40
0.1
 50
270.0
 51
0.0
  0
LINE
  5
F45FA
  8
VISIBLE
 10
-1.940237219443945
 20
0.2982909105776458
 30
0.0
 11
-1.940237219443945
 21
0.1882909105776459
 31
0.0
  0
LINE
  5
F45FB
  8
VISIBLE
 10
0.7367149097975819
 20
-2.425797312407295
 30
0.0
 11
0.917714909797582
 21
-2.425797312407295
 31
0.0
  0
LINE
  5
F45FC
  8
VISIBLE
 10
-2.796811001260919
 20
-1.904272335016821
 30
0.0
 11
-2.796811001260919
 21
-2.645608771035052
 31
0.0
  0
LINE
  5
F45FD
  8
VISIBLE
 10
-3.986836912319422
 20
-2.246949355481657
 30
0.0
 11
-3.986836912319422
 21
-2.366949355481657
 31
0.0
  0
LINE
  5
F45FE
  8
VISIBLE
 10
-3.21882059584387
 20
-0.4966120054050231
 30
0.0
 11
-3.32882059584387
 21
-0.4966120054050231
 31
0.0
  0
LINE
  5
F45FF
  8
VISIBLE
 10
-1.940237219443945
 20
0.1882909105776459
 30
0.0
 11
-1.830237219443945
 21
0.1882909105776459
 31
0.0
  0
LINE
  5
F4600
  8
VISIBLE
 10
-2.264801406677969
 20
-0.3866120054050232
 30
0.0
 11
-2.264801406677969
 21
-0.4966120054050233
 31
0.0
  0
LINE
  5
F4601
  8
VISIBLE
 10
0.2367149097975818
 20
-2.541949355481655
 30
0.0
 11
1.736714909797584
 21
-2.55522007130293
 31
0.0
  0
LINE
  5
F4602
  8
VISIBLE
 10
-4.365867453468593
 20
0.9403257971709654
 30
0.0
 11
-4.365867453468593
 21
0.8303257971709653
 31
0.0
  0
LINE
  5
F4603
  8
VISIBLE
 10
-6.511336912319422
 20
-2.178138643268527
 30
0.0
 11
-6.511336912319422
 21
-2.255797312407295
 31
0.0
  0
LINE
  5
F4604
  8
VISIBLE
 10
-1.694285090202416
 20
-2.366949355481657
 30
0.0
 11
-1.606785090202417
 21
-2.366949355481657
 31
0.0
  0
LINE
  5
F4605
  8
VISIBLE
 10
-4.330336912319422
 20
-2.541949355481656
 30
0.0
 11
-4.330336912319422
 21
-1.541949355481655
 31
0.0
  0
ARC
  5
F4606
  8
VISIBLE
 10
-2.413285090202412
 20
-2.311949355481657
 30
0.0
 40
0.1
 50
180.0
 51
270.0
  0
ENDSEC
  0
EOF
