  0
SECTION
  2
HEADER
  9
$ACADVER
  1
AC1009
  9
$DWGCODEPAGE
  3
undefined
  9
$INSBASE
 10
0.0
 20
0.0
 30
0.0
  9
$EXTMIN
 10
1.000000000000000E+20
 20
1.000000000000000E+20
 30
1.000000000000000E+20
  9
$EXTMAX
 10
-1.000000000000000E+20
 20
-1.000000000000000E+20
 30
-1.000000000000000E+20
  9
$LIMMIN
 10
0.0
 20
0.0
  9
$LIMMAX
 10
12.0
 20
9.0
  9
$ORTHOMODE
 70
     0
  9
$REGENMODE
 70
     1
  9
$FILLMODE
 70
     1
  9
$QTEXTMODE
 70
     0
  9
$MIRRTEXT
 70
     1
  9
$DRAGMODE
 70
     2
  9
$LTSCALE
 40
1.0
  9
$OSMODE
 70
    37
  9
$ATTMODE
 70
     1
  9
$TEXTSIZE
 40
0.2
  9
$TRACEWID
 40
0.05
  9
$TEXTSTYLE
  7
STANDARD
  9
$CLAYER
  8
0
  9
$CELTYPE
  6
BYLAYER
  9
$CECOLOR
 62
   256
  9
$DIMSCALE
 40
1.0
  9
$DIMASZ
 40
0.18
  9
$DIMEXO
 40
0.0625
  9
$DIMDLI
 40
0.38
  9
$DIMRND
 40
0.0
  9
$DIMDLE
 40
0.0
  9
$DIMEXE
 40
0.18
  9
$DIMTP
 40
0.0
  9
$DIMTM
 40
0.0
  9
$DIMTXT
 40
0.18
  9
$DIMCEN
 40
0.09
  9
$DIMTSZ
 40
0.0
  9
$DIMTOL
 70
     0
  9
$DIMLIM
 70
     0
  9
$DIMTIH
 70
     1
  9
$DIMTOH
 70
     1
  9
$DIMSE1
 70
     0
  9
$DIMSE2
 70
     0
  9
$DIMTAD
 70
     0
  9
$DIMZIN
 70
     0
  9
$DIMBLK
  1

  9
$DIMASO
 70
     1
  9
$DIMSHO
 70
     1
  9
$DIMPOST
  1

  9
$DIMAPOST
  1

  9
$DIMALT
 70
     0
  9
$DIMALTD
 70
     2
  9
$DIMALTF
 40
25.4
  9
$DIMLFAC
 40
1.0
  9
$DIMTOFL
 70
     0
  9
$DIMTVP
 40
0.0
  9
$DIMTIX
 70
     0
  9
$DIMSOXD
 70
     0
  9
$DIMSAH
 70
     0
  9
$DIMBLK1
  1

  9
$DIMBLK2
  1

  9
$DIMSTYLE
  2
STANDARD
  9
$DIMCLRD
 70
     0
  9
$DIMCLRE
 70
     0
  9
$DIMCLRT
 70
     0
  9
$DIMTFAC
 40
1.0
  9
$DIMGAP
 40
0.09
  9
$LUNITS
 70
     2
  9
$LUPREC
 70
     4
  9
$SKETCHINC
 40
0.1
  9
$FILLETRAD
 40
0.5
  9
$AUNITS
 70
     0
  9
$AUPREC
 70
     0
  9
$MENU
  1
.
  9
$ELEVATION
 40
0.0
  9
$PELEVATION
 40
0.0
  9
$THICKNESS
 40
0.0
  9
$LIMCHECK
 70
     0
  9
$CHAMFERA
 40
0.0
  9
$CHAMFERB
 40
0.0
  9
$SKPOLY
 70
     0
  9
$TDCREATE
 40
2457184.077592593
  9
$TDUPDATE
 40
2457184.077592593
  9
$TDINDWG
 40
0.0000000116
  9
$TDUSRTIMER
 40
0.0000000116
  9
$USRTIMER
 70
     1
  9
$ANGBASE
 50
0.0
  9
$ANGDIR
 70
     0
  9
$PDMODE
 70
     0
  9
$PDSIZE
 40
0.0
  9
$PLINEWID
 40
0.0
  9
$COORDS
 70
     1
  9
$SPLFRAME
 70
     0
  9
$SPLINETYPE
 70
     6
  9
$SPLINESEGS
 70
     8
  9
$ATTDIA
 70
     0
  9
$ATTREQ
 70
     1
  9
$HANDLING
 70
     1
  9
$HANDSEED
  5
100000C9
  9
$SURFTAB1
 70
     6
  9
$SURFTAB2
 70
     6
  9
$SURFTYPE
 70
     6
  9
$SURFU
 70
     6
  9
$SURFV
 70
     6
  9
$UCSNAME
  2

  9
$UCSORG
 10
0.0
 20
0.0
 30
0.0
  9
$UCSXDIR
 10
1.0
 20
0.0
 30
0.0
  9
$UCSYDIR
 10
0.0
 20
1.0
 30
0.0
  9
$PUCSNAME
  2

  9
$PUCSORG
 10
0.0
 20
0.0
 30
0.0
  9
$PUCSXDIR
 10
1.0
 20
0.0
 30
0.0
  9
$PUCSYDIR
 10
0.0
 20
1.0
 30
0.0
  9
$USERI1
 70
     0
  9
$USERI2
 70
     0
  9
$USERI3
 70
     0
  9
$USERI4
 70
     0
  9
$USERI5
 70
     0
  9
$USERR1
 40
0.0
  9
$USERR2
 40
0.0
  9
$USERR3
 40
0.0
  9
$USERR4
 40
0.0
  9
$USERR5
 40
0.0
  9
$WORLDVIEW
 70
     1
  9
$SHADEDGE
 70
     3
  9
$SHADEDIF
 70
    70
  9
$TILEMODE
 70
     1
  9
$MAXACTVP
 70
    64
  9
$PLIMCHECK
 70
     0
  9
$PEXTMIN
 10
1.000000000000000E+20
 20
1.000000000000000E+20
 30
1.000000000000000E+20
  9
$PEXTMAX
 10
-1.000000000000000E+20
 20
-1.000000000000000E+20
 30
-1.000000000000000E+20
  9
$PLIMMIN
 10
0.0
 20
0.0
  9
$PLIMMAX
 10
12.0
 20
9.0
  9
$UNITMODE
 70
     0
  9
$VISRETAIN
 70
     1
  9
$PLINEGEN
 70
     0
  9
$PSLTSCALE
 70
     1
  0
ENDSEC
  0
SECTION
  2
TABLES
  0
TABLE
  2
VPORT
 70
     1
  0
VPORT
  2
*ACTIVE
 70
     0
 10
0.0
 20
0.0
 11
1.0
 21
1.0
 12
10.42990654205607
 22
4.5
 13
0.0
 23
0.0
 14
0.5
 24
0.5
 15
0.5
 25
0.5
 16
0.0
 26
0.0
 36
1.0
 17
0.0
 27
0.0
 37
0.0
 40
9.0
 41
1.972972972850329
 42
50.0
 43
0.0
 44
0.0
 50
0.0
 51
0.0
 71
     0
 72
   100
 73
     1
 74
     3
 75
     0
 76
     0
 77
     0
 78
     0
  0
ENDTAB
  0
TABLE
  2
LTYPE
 70
     5
  0
LTYPE
  2
CONTINUOUS
 70
     0
  3
Solid line
 72
    65
 73
     0
 40
0.0
  0
LTYPE
  2
HIDDEN
 70
     0
  3
Hidden line ____ ____ ____ ____ 
 72
    83
 73
     2
 40
0.125
 49
0.25
 49
-0.125
  0
LTYPE
  2
PHANTOM
 70
     0
  3
Phantom line ______  __  __  ______  __  __
 72
    83
 73
     6
 40
0.5
 49
0.625
 49
-0.125
 49
0.125
 49
-0.125
 49
0.125
 49
-0.125
  0
LTYPE
  2
CENTER
 70
     0
  3
Center line ____ _ ____ _ ____ _
 72
    83
 73
     4
 40
0.5
 49
0.625
 49
-0.125
 49
0.125
 49
-0.125
  0
LTYPE
  2
DASHED
 70
     0
  3
Dashed line __ __ __ __
 72
    83
 73
     2
 40
0.25
 49
0.5
 49
-0.25
  0
ENDTAB
  0
TABLE
  2
LAYER
 70
     5
  0
LAYER
  2
0
 70
     0
 62
     7
  6
CONTINUOUS
  0
LAYER
  2
HIDDEN
 70
     0
 62
    -7
  6
HIDDEN
  0
LAYER
  2
VISIBLE
 70
     0
 62
     7
  6
CONTINUOUS
  0
LAYER
  2
TANGENT_LINES
 70
     0
 62
     7
  6
CONTINUOUS
  0
LAYER
  2
INVISIBLE_LINES
 70
     0
 62
    -7
  6
CONTINUOUS
  0
ENDTAB
  0
TABLE
  2
STYLE
 70
     2
  0
STYLE
  2
STANDARD
 70
     0
 40
0.0
 41
1.0
 50
0.0
 71
     0
 42
0.2
  3
txt
  4

  0
STYLE
  2
ODATTFSTYLE
 70
     0
 40
0.0
 41
1.0
 50
0.0
 71
     0
 42
0.2
  3
Verdana.ttf
  4

  0
ENDTAB
  0
TABLE
  2
VIEW
 70
     0
  0
ENDTAB
  0
TABLE
  2
UCS
 70
     0
  0
ENDTAB
  0
TABLE
  2
APPID
 70
     1
  0
APPID
  2
ACAD
 70
     0
  0
ENDTAB
  0
TABLE
  2
DIMSTYLE
 70
     1
  0
DIMSTYLE
  2
STANDARD
 70
     0
  3

  4

  5

  6

  7

 40
1.0
 41
0.18
 42
0.0625
 43
0.38
 44
0.18
 45
0.0
 46
0.0
 47
0.0
 48
0.0
140
0.18
141
0.09
142
0.0
143
25.4
144
1.0
145
0.0
146
1.0
147
0.09
 71
     0
 72
     0
 73
     1
 74
     1
 75
     0
 76
     0
 77
     0
 78
     0
170
     0
171
     2
172
     0
173
     0
174
     0
175
     0
176
     0
177
     0
178
     0
  0
ENDTAB
  0
ENDSEC
  0
SECTION
  2
BLOCKS
  0
BLOCK
  8
0
  2
$MODEL_SPACE
 70
     0
 10
0.0
 20
0.0
 30
0.0
  3
$MODEL_SPACE
  1

  0
ENDBLK
  5
21
  8
0
  0
BLOCK
 67
     1
  8
0
  2
$PAPER_SPACE
 70
     0
 10
0.0
 20
0.0
 30
0.0
  3
$PAPER_SPACE
  1

  0
ENDBLK
  5
1D
 67
     1
  8
0
  0
ENDSEC
  0
SECTION
  2
ENTITIES
  0
LINE
  5
F4607
  8
VISIBLE
 10
3.258751209151135
 20
1.278026315093601
 30
0.0
 11
5.508751209151135
 21
1.278026315093602
 31
0.0
  0
LINE
  5
F4608
  8
VISIBLE
 10
2.008751209151135
 20
-0.0841776712546277
 30
0.0
 11
2.008751209151135
 21
-0.2969736849064
 31
0.0
  0
LINE
  5
F4609
  8
VISIBLE
 10
2.358751209151135
 20
-1.1469736849064
 30
0.0
 11
2.358751209151135
 21
-1.2469736849064
 31
0.0
  0
LINE
  5
F460A
  8
VISIBLE
 10
2.133751209151135
 20
-0.2969736849064
 30
0.0
 11
2.133751209151135
 21
-1.371973684906399
 31
0.0
  0
LINE
  5
F460B
  8
VISIBLE
 10
2.758751209151134
 20
1.403026315093601
 30
0.0
 11
2.979515101339047
 21
1.403026315093601
 31
0.0
  0
LINE
  5
F460C
  8
VISIBLE
 10
2.258751209151135
 20
-1.1469736849064
 30
0.0
 11
2.258751209151135
 21
-1.2469736849064
 31
0.0
  0
LINE
  5
F460D
  8
VISIBLE
 10
3.037987316963225
 20
-1.496973684906401
 30
0.0
 11
3.258751209151136
 21
-1.496973684906401
 31
0.0
  0
CIRCLE
  5
F460E
  8
VISIBLE
 10
2.066861994723186
 20
-0.0469736849063999
 30
0.0
 40
0.069
  0
LINE
  5
F460F
  8
VISIBLE
 10
3.037987316963224
 20
1.403026315093601
 30
0.0
 11
3.258751209151135
 21
1.403026315093601
 31
0.0
  0
LINE
  5
F4610
  8
VISIBLE
 10
6.008751209151135
 20
-1.371973684906398
 30
0.0
 11
6.383751209151137
 21
-1.371973684906398
 31
0.0
  0
LINE
  5
F4611
  8
VISIBLE
 10
6.008751209151134
 20
1.2780263150936
 30
0.0
 11
6.008751209151134
 21
1.4030263150936
 31
0.0
  0
LINE
  5
F4612
  8
VISIBLE
 10
2.813751209151135
 20
-1.2469736849064
 30
0.0
 11
2.913751209151135
 21
-1.2469736849064
 31
0.0
  0
LINE
  5
F4613
  8
VISIBLE
 10
6.008751209151134
 20
1.4030263150936
 30
0.0
 11
5.78689370371008
 21
1.4030263150936
 31
0.0
  0
LINE
  5
F4614
  8
VISIBLE
 10
6.383751209151136
 20
-0.2969736849063991
 30
0.0
 11
6.383751209151136
 21
-1.371973684906398
 31
0.0
  0
LINE
  5
F4615
  8
VISIBLE
 10
2.813751209151135
 20
-1.1469736849064
 30
0.0
 11
2.913751209151135
 21
-1.1469736849064
 31
0.0
  0
LINE
  5
F4616
  8
VISIBLE
 10
2.813751209151134
 20
1.1530263150936
 30
0.0
 11
2.913751209151134
 21
1.1530263150936
 31
0.0
  0
LINE
  5
F4617
  8
VISIBLE
 10
2.258751209151135
 20
-1.1469736849064
 30
0.0
 11
2.358751209151134
 21
-1.1469736849064
 31
0.0
  0
LINE
  5
F4618
  8
VISIBLE
 10
6.508751209151135
 20
-0.0751161794653429
 30
0.0
 11
6.508751209151135
 21
-0.2969736849063992
 31
0.0
  0
CIRCLE
  5
F4619
  8
VISIBLE
 10
-5.758751209151134
 20
1.340026315093602
 30
0.0
 40
0.069
210
0.0
220
0.0
230
-1.0
  0
LINE
  5
F461A
  8
VISIBLE
 10
6.173453403739479
 20
-0.8892478000427745
 30
0.0
 11
6.173453403739479
 21
-0.9892478000427753
 31
0.0
  0
CIRCLE
  5
F461B
  8
VISIBLE
 10
5.839367609793748
 20
-0.046973684906399
 30
0.0
 40
0.17
  0
LINE
  5
F461C
  8
VISIBLE
 10
2.258751209151134
 20
1.1530263150936
 30
0.0
 11
2.358751209151134
 21
1.1530263150936
 31
0.0
  0
LINE
  5
F461D
  8
VISIBLE
 10
5.197729768715505
 20
-0.3253054215231778
 30
0.0
 11
5.197729768715505
 21
-0.4253054215231779
 31
0.0
  0
LINE
  5
F461E
  8
VISIBLE
 10
6.273453403739478
 20
-0.9892478000427753
 30
0.0
 11
6.173453403739479
 21
-0.9892478000427753
 31
0.0
  0
LINE
  5
F461F
  8
VISIBLE
 10
2.813751209151134
 20
1.053026315093601
 30
0.0
 11
2.913751209151134
 21
1.053026315093601
 31
0.0
  0
CIRCLE
  5
F4620
  8
VISIBLE
 10
-3.008751209151134
 20
1.340526315093601
 30
0.0
 40
0.069
210
0.0
220
0.0
230
-1.0
  0
LINE
  5
F4621
  8
VISIBLE
 10
5.297729768715505
 20
-0.3253054215231778
 30
0.0
 11
5.297729768715505
 21
-0.4253054215231779
 31
0.0
  0
LINE
  5
F4622
  8
VISIBLE
 10
2.358751209151134
 20
1.053026315093601
 30
0.0
 11
2.358751209151134
 21
1.153026315093601
 31
0.0
  0
LINE
  5
F4623
  8
VISIBLE
 10
6.273453403739478
 20
-0.8892478000427745
 30
0.0
 11
6.273453403739478
 21
-0.9892478000427753
 31
0.0
  0
LINE
  5
F4624
  8
VISIBLE
 10
5.730608714592194
 20
-1.4969736849064
 30
0.0
 11
5.508751209151136
 21
-1.4969736849064
 31
0.0
  0
LINE
  5
F4625
  8
VISIBLE
 10
2.258751209151135
 20
-1.2469736849064
 30
0.0
 11
2.358751209151135
 21
-1.2469736849064
 31
0.0
  0
CIRCLE
  5
F4626
  8
VISIBLE
 10
6.445751209151136
 20
-0.0469736849063991
 30
0.0
 40
0.069
  0
LINE
  5
F4627
  8
VISIBLE
 10
2.258751209151134
 20
1.053026315093601
 30
0.0
 11
2.258751209151134
 21
1.153026315093601
 31
0.0
  0
LINE
  5
F4628
  8
VISIBLE
 10
6.273453403739478
 20
-0.4392478000427751
 30
0.0
 11
6.273453403739478
 21
-0.5392478000427744
 31
0.0
  0
LINE
  5
F4629
  8
VISIBLE
 10
5.197729768715505
 20
-0.3253054215231778
 30
0.0
 11
5.297729768715505
 21
-0.3253054215231778
 31
0.0
  0
LINE
  5
F462A
  8
VISIBLE
 10
5.197729768715505
 20
-0.4253054215231779
 30
0.0
 11
5.297729768715505
 21
-0.4253054215231779
 31
0.0
  0
LINE
  5
F462B
  8
VISIBLE
 10
6.273453403739478
 20
-0.8892478000427745
 30
0.0
 11
6.173453403739479
 21
-0.8892478000427745
 31
0.0
  0
LINE
  5
F462C
  8
VISIBLE
 10
2.258751209151134
 20
1.053026315093601
 30
0.0
 11
2.358751209151134
 21
1.053026315093601
 31
0.0
  0
LINE
  5
F462D
  8
VISIBLE
 10
2.133751209151134
 20
-1.3719736849064
 30
0.0
 11
2.758751209151135
 21
-1.3719736849064
 31
0.0
  0
LINE
  5
F462E
  8
VISIBLE
 10
6.383751209151136
 20
1.2780263150936
 30
0.0
 11
6.383751209151136
 21
0.203026315093601
 31
0.0
  0
LINE
  5
F462F
  8
VISIBLE
 10
2.758751209151135
 20
-1.4969736849064
 30
0.0
 11
2.979515101339048
 21
-1.4969736849064
 31
0.0
  0
LINE
  5
F4630
  8
VISIBLE
 10
2.758751209151135
 20
-1.371973684906399
 30
0.0
 11
2.758751209151135
 21
-1.4969736849064
 31
0.0
  0
LINE
  5
F4631
  8
VISIBLE
 10
3.258751209151135
 20
-1.3719736849064
 30
0.0
 11
3.258751209151135
 21
-1.4969736849064
 31
0.0
  0
LINE
  5
F4632
  8
VISIBLE
 10
6.008751209151135
 20
-1.4969736849064
 30
0.0
 11
5.78689370371008
 21
-1.4969736849064
 31
0.0
  0
LINE
  5
F4633
  8
VISIBLE
 10
6.008751209151135
 20
-1.371973684906398
 30
0.0
 11
6.008751209151135
 21
-1.496973684906397
 31
0.0
  0
LINE
  5
F4634
  8
VISIBLE
 10
5.508751209151136
 20
-1.371973684906399
 30
0.0
 11
5.508751209151136
 21
-1.4969736849064
 31
0.0
  0
LINE
  5
F4635
  8
VISIBLE
 10
3.258751209151134
 20
1.278026315093601
 30
0.0
 11
3.258751209151134
 21
1.403026315093601
 31
0.0
  0
CIRCLE
  5
F4636
  8
VISIBLE
 10
3.008751209151136
 20
-1.4344736849064
 30
0.0
 40
0.069
  0
LINE
  5
F4637
  8
VISIBLE
 10
6.173453403739479
 20
-0.5392478000427744
 30
0.0
 11
6.273453403739478
 21
-0.5392478000427744
 31
0.0
  0
LINE
  5
F4638
  8
VISIBLE
 10
6.008751209151134
 20
1.2780263150936
 30
0.0
 11
6.008751209151134
 21
1.4030263150936
 31
0.0
  0
CIRCLE
  5
F4639
  8
VISIBLE
 10
5.758751209151136
 20
-1.4339736849064
 30
0.0
 40
0.069
  0
LINE
  5
F463A
  8
VISIBLE
 10
5.210071332811371
 20
0.4028526533992712
 30
0.0
 11
5.210071332811371
 21
0.3028526533992711
 31
0.0
  0
LINE
  5
F463B
  8
VISIBLE
 10
6.383751209151136
 20
0.2030263150936009
 30
0.0
 11
6.508751209151136
 21
0.2030263150936009
 31
0.0
  0
LINE
  5
F463C
  8
VISIBLE
 10
6.383751209151136
 20
-0.2969736849063991
 30
0.0
 11
6.508751209151135
 21
-0.2969736849063991
 31
0.0
  0
LINE
  5
F463D
  8
VISIBLE
 10
6.508751209151135
 20
0.2030263150936009
 30
0.0
 11
6.508751209151135
 21
-0.0188311903474559
 31
0.0
  0
LINE
  5
F463E
  8
VISIBLE
 10
2.133751209151135
 20
-0.2969736849064
 30
0.0
 11
2.008751209151135
 21
-0.2969736849064
 31
0.0
  0
LINE
  5
F463F
  8
VISIBLE
 10
2.129861994723186
 20
0.2030263150936001
 30
0.0
 11
2.008751209151135
 21
0.2030263150936001
 31
0.0
  0
LINE
  5
F4640
  8
VISIBLE
 10
2.008751209151135
 20
0.2030263150936001
 30
0.0
 11
2.008751209151135
 21
-0.009769698558172
 31
0.0
  0
LINE
  5
F4641
  8
VISIBLE
 10
6.173453403739479
 20
-0.4392478000427751
 30
0.0
 11
6.173453403739479
 21
-0.5392478000427744
 31
0.0
  0
LINE
  5
F4642
  8
VISIBLE
 10
2.913751209151134
 20
1.0530263150936
 30
0.0
 11
2.913751209151134
 21
1.153026315093601
 31
0.0
  0
LINE
  5
F4643
  8
VISIBLE
 10
2.133751209151134
 20
1.2780263150936
 30
0.0
 11
2.129861994723186
 21
0.2030263150935998
 31
0.0
  0
LINE
  5
F4644
  8
VISIBLE
 10
5.31007133281137
 20
0.4028526533992712
 30
0.0
 11
5.31007133281137
 21
0.3028526533992711
 31
0.0
  0
LINE
  5
F4645
  8
VISIBLE
 10
5.210071332811371
 20
0.3028526533992711
 30
0.0
 11
5.31007133281137
 21
0.3028526533992711
 31
0.0
  0
LINE
  5
F4646
  8
VISIBLE
 10
6.173453403739479
 20
-0.4392478000427744
 30
0.0
 11
6.273453403739478
 21
-0.4392478000427744
 31
0.0
  0
LINE
  5
F4647
  8
VISIBLE
 10
2.813751209151134
 20
1.053026315093601
 30
0.0
 11
2.813751209151134
 21
1.153026315093601
 31
0.0
  0
LINE
  5
F4648
  8
VISIBLE
 10
6.008751209151134
 20
1.2780263150936
 30
0.0
 11
6.383751209151136
 21
1.2780263150936
 31
0.0
  0
LINE
  5
F4649
  8
VISIBLE
 10
5.730608714592193
 20
1.4030263150936
 30
0.0
 11
5.508751209151135
 21
1.4030263150936
 31
0.0
  0
LINE
  5
F464A
  8
VISIBLE
 10
2.813751209151135
 20
-1.1469736849064
 30
0.0
 11
2.813751209151135
 21
-1.2469736849064
 31
0.0
  0
LINE
  5
F464B
  8
VISIBLE
 10
5.508751209151135
 20
1.278026315093601
 30
0.0
 11
5.508751209151135
 21
1.403026315093602
 31
0.0
  0
LINE
  5
F464C
  8
VISIBLE
 10
3.258751209151135
 20
-1.3719736849064
 30
0.0
 11
5.508751209151136
 21
-1.371973684906399
 31
0.0
  0
LINE
  5
F464D
  8
VISIBLE
 10
2.758751209151135
 20
1.2780263150936
 30
0.0
 11
2.758751209151135
 21
1.403026315093601
 31
0.0
  0
LINE
  5
F464E
  8
VISIBLE
 10
2.913751209151135
 20
-1.1469736849064
 30
0.0
 11
2.913751209151135
 21
-1.2469736849064
 31
0.0
  0
LINE
  5
F464F
  8
VISIBLE
 10
5.210071332811371
 20
0.4028526533992712
 30
0.0
 11
5.31007133281137
 21
0.4028526533992712
 31
0.0
  0
LINE
  5
F4650
  8
VISIBLE
 10
2.133751209151134
 20
1.2780263150936
 30
0.0
 11
2.758751209151134
 21
1.2780263150936
 31
0.0
  0
ENDSEC
  0
EOF
